<?xml version="1.0" encoding="UTF-8"?>
<svg version="1.1" xmlns="http://www.w3.org/2000/svg" width="160" height="160">
<path d="M0 0 C52.8 0 105.6 0 160 0 C160 52.8 160 105.6 160 160 C107.2 160 54.4 160 0 160 C0 107.2 0 54.4 0 0 Z " fill="#4E4E4E" transform="translate(0,0)"/>
<path d="M0 0 C13.86 0 27.72 0 42 0 C42 1.98 42 3.96 42 6 C43.98 6 45.96 6 48 6 C48 9.96 48 13.92 48 18 C53.94 18 59.88 18 66 18 C66 21.96 66 25.92 66 30 C67.98 30 69.96 30 72 30 C72 43.86 72 57.72 72 72 C70.02 72 68.04 72 66 72 C66 83.88 66 95.76 66 108 C64.02 108 62.04 108 60 108 C60 109.98 60 111.96 60 114 C54.06 114 48.12 114 42 114 C42 112.02 42 110.04 42 108 C40.02 108 38.04 108 36 108 C36 109.98 36 111.96 36 114 C24.12 114 12.24 114 0 114 C0 98.16 0 82.32 0 66 C1.98 66 3.96 66 6 66 C6 52.14 6 38.28 6 24 C2.04 24 -1.92 24 -6 24 C-6 18.06 -6 12.12 -6 6 C-4.02 6 -2.04 6 0 6 C0 4.02 0 2.04 0 0 Z " fill="#181718" transform="translate(47,20)"/>
<path d="M0 0 C13.86 0 27.72 0 42 0 C42 9.9 42 19.8 42 30 C28.14 30 14.28 30 0 30 C0 20.1 0 10.2 0 0 Z " fill="#B4ADA6" transform="translate(71,56)"/>
<path d="M0 0 C17.82 0 35.64 0 54 0 C54 1.98 54 3.96 54 6 C44.1 6 34.2 6 24 6 C24 15.9 24 25.8 24 36 C16.08 36 8.16 36 0 36 C0 24.12 0 12.24 0 0 Z " fill="#37743F" transform="translate(53,92)"/>
<path d="M0 0 C9.9 0 19.8 0 30 0 C30 1.98 30 3.96 30 6 C31.98 6 33.96 6 36 6 C36 7.98 36 9.96 36 12 C34.02 12 32.04 12 30 12 C30 13.98 30 15.96 30 18 C37.92 18 45.84 18 54 18 C54 19.98 54 21.96 54 24 C40.14 24 26.28 24 12 24 C12 35.88 12 47.76 12 60 C10.02 60 8.04 60 6 60 C6 46.14 6 32.28 6 18 C9.96 18 13.92 18 18 18 C18 16.02 18 14.04 18 12 C16.02 12 14.04 12 12 12 C12 10.02 12 8.04 12 6 C8.04 6 4.08 6 0 6 C0 4.02 0 2.04 0 0 Z " fill="#807C76" transform="translate(53,26)"/>
<path d="M0 0 C11.88 0 23.76 0 36 0 C36 1.98 36 3.96 36 6 C26.1 6 16.2 6 6 6 C6 15.9 6 25.8 6 36 C-1.92 36 -9.84 36 -18 36 C-18 34.02 -18 32.04 -18 30 C-12.06 30 -6.12 30 0 30 C0 20.1 0 10.2 0 0 Z " fill="#E2AE4A" transform="translate(71,92)"/>
<path d="M0 0 C7.92 0 15.84 0 24 0 C24 5.94 24 11.88 24 18 C22.02 18 20.04 18 18 18 C18 19.98 18 21.96 18 24 C16.02 24 14.04 24 12 24 C12 20.04 12 16.08 12 12 C8.04 12 4.08 12 0 12 C0 8.04 0 4.08 0 0 Z " fill="#807C76" transform="translate(83,104)"/>
<path d="M0 0 C9.9 0 19.8 0 30 0 C30 1.98 30 3.96 30 6 C31.98 6 33.96 6 36 6 C36 7.98 36 9.96 36 12 C34.02 12 32.04 12 30 12 C30 13.98 30 15.96 30 18 C26.04 18 22.08 18 18 18 C18 16.02 18 14.04 18 12 C16.02 12 14.04 12 12 12 C12 10.02 12 8.04 12 6 C8.04 6 4.08 6 0 6 C0 4.02 0 2.04 0 0 Z " fill="#C33B3B" transform="translate(53,26)"/>
<path d="M0 0 C1.98 0 3.96 0 6 0 C6 9.9 6 19.8 6 30 C4.02 30 2.04 30 0 30 C0 20.1 0 10.2 0 0 Z " fill="#807C76" transform="translate(59,56)"/>
<path d="M0 0 C5.94 0 11.88 0 18 0 C18 1.98 18 3.96 18 6 C14.04 6 10.08 6 6 6 C6 7.98 6 9.96 6 12 C4.02 12 2.04 12 0 12 C0 8.04 0 4.08 0 0 Z " fill="#E9E0D4" transform="translate(71,56)"/>
<path d="M0 0 C5.94 0 11.88 0 18 0 C18 1.98 18 3.96 18 6 C14.04 6 10.08 6 6 6 C6 7.98 6 9.96 6 12 C4.02 12 2.04 12 0 12 C0 8.04 0 4.08 0 0 Z " fill="#E9E0D4" transform="translate(59,44)"/>
<path d="M0 0 C3.96 0 7.92 0 12 0 C12 1.98 12 3.96 12 6 C10.02 6 8.04 6 6 6 C6 7.98 6 9.96 6 12 C4.02 12 2.04 12 0 12 C0 8.04 0 4.08 0 0 Z " fill="#B4ADA6" transform="translate(95,116)"/>
<path d="M0 0 C1.98 0 3.96 0 6 0 C6 5.94 6 11.88 6 18 C4.02 18 2.04 18 0 18 C0 12.06 0 6.12 0 0 Z " fill="#181718" transform="translate(101,62)"/>
<path d="M0 0 C1.98 0 3.96 0 6 0 C6 5.94 6 11.88 6 18 C4.02 18 2.04 18 0 18 C0 12.06 0 6.12 0 0 Z " fill="#181718" transform="translate(89,62)"/>
<path d="M0 0 C1.98 0 3.96 0 6 0 C6 5.94 6 11.88 6 18 C4.02 18 2.04 18 0 18 C0 12.06 0 6.12 0 0 Z " fill="#181718" transform="translate(77,62)"/>
<path d="M0 0 C1.98 0 3.96 0 6 0 C6 1.98 6 3.96 6 6 C4.02 6 2.04 6 0 6 C0 4.02 0 2.04 0 0 Z " fill="#C33B3B" transform="translate(47,32)"/>
</svg>
